<svg width="128" height="128" viewBox="0 0 128 128" fill="none" xmlns="http://www.w3.org/2000/svg">
<rect width="128" height="128" rx="64" fill="#27272A"/>
<g clip-path="url(#clip0_112_2)">
<path d="M53.25 89.0833C37.8417 94.1 37.8417 80.125 31.75 78.3333M74.75 96.25V83.7083C74.75 80.125 75.1083 78.6917 72.9583 76.5417C82.9917 75.4667 92.6667 71.525 92.6667 55.0417C92.6623 50.7595 90.9916 46.647 88.0083 43.575C89.4075 39.8554 89.2787 35.7333 87.65 32.1083C87.65 32.1083 83.7083 31.0333 75.1083 36.7667C67.8243 34.8696 60.1757 34.8696 52.8917 36.7667C44.2917 31.0333 40.35 32.1083 40.35 32.1083C38.7213 35.7333 38.5925 39.8554 39.9917 43.575C37.0084 46.647 35.3377 50.7595 35.3333 55.0417C35.3333 71.525 45.0083 75.4667 55.0417 76.5417C52.8917 78.6917 52.8917 80.8417 53.25 83.7083V96.25" stroke="white" stroke-width="2.08333" stroke-linecap="round" stroke-linejoin="round"/>
</g>
<defs>
<clipPath id="clip0_112_2">
<rect width="86" height="86" fill="white" transform="translate(21 21)"/>
</clipPath>
</defs>
</svg>
