<svg width="128" height="128" viewBox="0 0 128 128" fill="none" xmlns="http://www.w3.org/2000/svg">
<g filter="url(#filter0_ii_108_11)">
<path d="M0 64C0 28.6538 28.6538 0 64 0C99.3462 0 128 28.6538 128 64C128 99.3462 99.3462 128 64 128C28.6538 128 0 99.3462 0 64Z" fill="#2563EB"/>
</g>
<path d="M90.243 92.1663C91.5394 93.5561 93.7287 93.6407 95.0093 92.2363C99.5899 87.2129 102.912 81.1515 104.677 74.5517C106.738 66.8408 106.59 58.7056 104.248 51.075C101.907 43.4445 97.4666 36.6261 91.435 31.3985C85.4035 26.1709 78.0234 22.7448 70.1376 21.5113C62.2518 20.2778 54.178 21.2867 46.8382 24.4228C39.4984 27.559 33.1884 32.6958 28.6287 39.247C24.0691 45.7981 21.4435 53.4994 21.0518 61.4715C20.7165 68.2948 22.0293 75.0812 24.8572 81.2634C25.6478 82.9917 27.7584 83.5797 29.4172 82.6521C31.076 81.7246 31.652 79.6331 30.8885 77.8926C28.6753 72.8475 27.6541 67.3429 27.926 61.8092C28.2544 55.1263 30.4554 48.6704 34.2777 43.1787C38.1 37.687 43.3896 33.3808 49.5424 30.7519C55.6953 28.1229 62.4634 27.2772 69.074 28.3112C75.6846 29.3452 81.8712 32.2172 86.9273 36.5995C91.9835 40.9817 95.7055 46.6974 97.6683 53.094C99.6311 59.4906 99.7556 66.3102 98.0276 72.7742C96.5967 78.1266 93.9434 83.0565 90.2953 87.1848C89.0368 88.609 88.9467 90.7764 90.243 92.1663Z" fill="white" fill-opacity="0.3"/>
<path d="M63.56 24.4604C63.56 22.5492 62.008 20.9853 60.1032 21.1405C52.9041 21.7271 45.9521 24.1387 39.9149 28.1726C32.916 32.8491 27.461 39.4961 24.2397 47.2729C21.0184 55.0497 20.1756 63.6071 21.8178 71.8629C23.46 80.1188 27.5134 87.7022 33.4655 93.6544C39.4177 99.6065 47.0011 103.66 55.257 105.302C63.5128 106.944 72.0702 106.101 79.847 102.88C87.6238 99.6589 94.2708 94.2039 98.9473 87.205C102.981 81.1678 105.393 74.2158 105.979 67.0167C106.135 65.1119 104.571 63.5599 102.66 63.5599C100.748 63.5599 99.2164 65.1129 99.0311 67.0151C98.4634 72.8435 96.4659 78.4613 93.1927 83.3599C89.2767 89.2207 83.7106 93.7886 77.1985 96.486C70.6863 99.1835 63.5205 99.8892 56.6072 98.5141C49.6939 97.139 43.3436 93.7447 38.3594 88.7605C33.3752 83.7763 29.981 77.426 28.6058 70.5127C27.2307 63.5994 27.9365 56.4336 30.6339 49.9214C33.3313 43.4093 37.8993 37.8432 43.7601 33.9272C48.6586 30.6541 54.2765 28.6565 60.1048 28.0888C62.007 27.9035 63.56 26.3716 63.56 24.4604Z" fill="white"/>
<path d="M77.2467 60.4809C79.5801 61.8281 79.5801 65.196 77.2467 66.5431L59.2698 76.9221C56.9365 78.2693 54.0198 76.5853 54.0198 73.891V53.1331C54.0198 50.4388 56.9365 48.7548 59.2698 50.102L77.2467 60.4809Z" fill="white"/>
<defs>
<filter id="filter0_ii_108_11" x="-18" y="-18" width="164" height="164" filterUnits="userSpaceOnUse" color-interpolation-filters="sRGB">
<feFlood flood-opacity="0" result="BackgroundImageFix"/>
<feBlend mode="normal" in="SourceGraphic" in2="BackgroundImageFix" result="shape"/>
<feColorMatrix in="SourceAlpha" type="matrix" values="0 0 0 0 0 0 0 0 0 0 0 0 0 0 0 0 0 0 127 0" result="hardAlpha"/>
<feOffset dx="18" dy="-18"/>
<feGaussianBlur stdDeviation="16"/>
<feComposite in2="hardAlpha" operator="arithmetic" k2="-1" k3="1"/>
<feColorMatrix type="matrix" values="0 0 0 0 0.0980392 0 0 0 0 0.188235 0 0 0 0 0.447059 0 0 0 0.24 0"/>
<feBlend mode="normal" in2="shape" result="effect1_innerShadow_108_11"/>
<feColorMatrix in="SourceAlpha" type="matrix" values="0 0 0 0 0 0 0 0 0 0 0 0 0 0 0 0 0 0 127 0" result="hardAlpha"/>
<feOffset dx="-18" dy="18"/>
<feGaussianBlur stdDeviation="16"/>
<feComposite in2="hardAlpha" operator="arithmetic" k2="-1" k3="1"/>
<feColorMatrix type="matrix" values="0 0 0 0 0.576471 0 0 0 0 0.772549 0 0 0 0 0.992157 0 0 0 0.24 0"/>
<feBlend mode="normal" in2="effect1_innerShadow_108_11" result="effect2_innerShadow_108_11"/>
</filter>
</defs>
</svg>
