<svg width="128" height="128" viewBox="0 0 128 128" fill="none" xmlns="http://www.w3.org/2000/svg">
<rect width="128" height="128" rx="64" fill="black"/>
<path d="M64.049 79.9369C87.8243 79.9369 107.098 72.5778 107.098 63.5C107.098 54.4221 87.8243 47.0631 64.049 47.0631C40.2737 47.0631 21 54.4221 21 63.5C21 72.5778 40.2737 79.9369 64.049 79.9369Z" stroke="#61DAFB" stroke-width="3.91355"/>
<path d="M49.8157 71.7184C61.7034 92.3085 77.7133 105.32 85.575 100.782C93.4366 96.2426 90.1729 75.8716 78.2853 55.2815C66.3976 34.6915 50.3876 21.6795 42.526 26.2184C34.6643 30.7574 37.928 51.1284 49.8157 71.7184Z" stroke="#61DAFB" stroke-width="3.91355"/>
<path d="M49.8165 55.2815C37.9288 75.8716 34.6651 96.2426 42.5268 100.782C50.3884 105.32 66.3984 92.3085 78.286 71.7184C90.1737 51.1284 93.4374 30.7574 85.5758 26.2184C77.7141 21.6795 61.7042 34.6915 49.8165 55.2815Z" stroke="#61DAFB" stroke-width="3.91355"/>
</svg>
