<?xml version="1.0" standalone="no"?>
<!DOCTYPE svg PUBLIC "-//W3C//DTD SVG 20010904//EN"
 "http://www.w3.org/TR/2001/REC-SVG-20010904/DTD/svg10.dtd">
<svg version="1.0" xmlns="http://www.w3.org/2000/svg"
 width="1024.000000pt" height="1024.000000pt" viewBox="0 0 1024.000000 1024.000000"
 preserveAspectRatio="xMidYMid meet">
<metadata>
Created by potrace 1.14, written by Peter Selinger 2001-2017
</metadata>
<g transform="translate(0.000000,1024.000000) scale(0.100000,-0.100000)"
fill="#000000" stroke="none">
<path d="M6374 9523 c4 -307 9 -577 13 -601 3 -28 13 -49 29 -61 29 -23 30
-31 4 -31 -12 0 -33 12 -48 26 -31 29 -131 79 -179 89 -25 5 -33 12 -33 27 0
23 -75 99 -167 168 -93 71 -145 118 -170 155 -13 20 -46 46 -74 61 -45 22 -61
25 -128 21 -49 -2 -94 -11 -122 -24 -24 -11 -55 -25 -69 -31 -23 -10 -21 -11
15 -7 l40 5 -30 -15 c-16 -8 -37 -14 -45 -15 -8 0 -24 -7 -34 -15 -19 -14 -18
-15 15 -16 l34 -1 -35 -10 c-19 -5 -61 -13 -93 -17 -32 -4 -61 -11 -65 -16
-11 -16 -55 -38 -81 -41 -36 -4 -15 12 100 75 97 53 116 70 88 80 -6 2 -9 -1
-5 -7 3 -5 -1 -13 -10 -16 -8 -3 -12 -2 -9 4 8 14 6 13 -61 -14 -32 -13 -76
-39 -97 -56 -21 -18 -41 -29 -45 -25 -4 4 2 13 12 21 11 8 16 14 12 14 -15 0
79 73 111 86 44 19 103 18 117 -2 11 -15 15 -14 46 4 18 12 35 30 37 41 2 17
-1 19 -28 11 -16 -5 -40 -5 -51 -1 -19 7 -42 4 -119 -14 -14 -4 -48 -24 -75
-46 -27 -21 -66 -48 -87 -59 -21 -12 -41 -29 -44 -38 -4 -9 -22 -37 -41 -61
-72 -95 -93 -164 -96 -323 -1 -54 0 -98 2 -98 2 0 31 15 65 34 115 64 283 83
372 41 22 -10 48 -19 58 -20 10 -1 28 -12 41 -24 12 -12 25 -18 29 -15 3 4 9
-5 13 -20 3 -14 10 -26 15 -26 5 0 9 -7 9 -16 0 -14 -3 -14 -15 -4 -12 10 -15
9 -15 -4 0 -16 -1 -16 -16 -1 -14 13 -19 14 -25 3 -13 -19 -11 -38 4 -36 7 2
11 -5 9 -15 -2 -10 2 -24 8 -31 5 -8 8 -21 4 -30 -3 -9 -2 -16 3 -16 5 0 26
-25 48 -57 22 -31 50 -66 63 -78 19 -19 20 -24 7 -29 -8 -3 -15 -1 -15 4 0 6
-9 10 -21 10 -11 0 -30 5 -42 12 -27 14 -167 20 -167 6 0 -5 -4 -7 -10 -3 -16
10 -59 -6 -54 -20 6 -15 -33 -27 -40 -11 -3 7 -5 7 -5 -1 -1 -7 -12 -13 -25
-13 -13 0 -27 -7 -30 -16 -4 -9 -13 -14 -21 -10 -8 3 -15 0 -15 -7 0 -7 -9
-18 -20 -25 -11 -7 -20 -19 -20 -27 0 -7 -9 -20 -20 -28 -11 -8 -17 -17 -14
-20 4 -4 -2 -10 -12 -14 -10 -3 -22 -11 -25 -16 -11 -15 -29 2 -29 27 0 13 -3
38 -6 55 l-7 32 -14 -28 c-16 -29 -21 -47 -22 -74 -1 -18 -52 -24 -62 -7 -4 6
-15 2 -28 -11 -11 -11 -21 -16 -21 -11 0 17 -25 11 -38 -10 -8 -14 -23 -20
-47 -20 -24 0 -35 -5 -35 -14 0 -12 -6 -13 -31 -4 -20 7 -33 7 -38 1 -3 -6
-24 -14 -46 -18 -40 -8 -40 -9 30 -18 112 -14 324 -2 460 28 93 19 149 25 249
26 70 0 131 -2 134 -5 3 -4 -39 -6 -94 -6 -115 0 -228 -17 -369 -55 -90 -25
-114 -27 -235 -24 -74 1 -189 3 -255 3 l-120 1 -91 -44 c-63 -29 -95 -51 -103
-68 -15 -33 -14 -170 4 -284 15 -100 51 -189 101 -248 13 -16 24 -33 24 -37 0
-5 17 -21 38 -36 l38 -26 22 23 c26 27 32 59 6 34 -20 -21 -70 -14 -53 7 6 8
20 14 30 14 10 0 21 4 24 10 7 12 -12 50 -25 50 -14 0 -12 -27 3 -33 6 -3 0
-6 -15 -6 -23 -1 -27 3 -25 22 1 13 -3 21 -10 20 -7 -2 -10 3 -7 11 7 19 -22
39 -49 32 -30 -7 -53 31 -72 121 -15 68 -20 193 -9 193 3 0 40 -32 82 -70 79
-73 92 -75 92 -16 0 22 -16 44 -67 98 -80 81 -91 101 -73 124 18 21 97 59 138
67 l33 7 -5 -40 c-3 -22 -8 -45 -12 -52 -4 -6 1 -17 11 -25 11 -7 13 -13 7
-13 -8 0 -12 -23 -12 -70 0 -56 3 -70 15 -70 8 0 15 -5 15 -11 0 -6 9 -8 21
-4 25 8 84 -20 115 -54 19 -23 23 -24 53 -12 17 8 31 18 31 24 0 6 2 8 5 5 10
-10 -36 -117 -63 -150 -31 -37 -88 -64 -155 -73 -40 -6 -46 -10 -35 -20 20
-20 38 -20 106 0 63 18 64 19 117 101 30 45 85 114 124 152 46 46 66 73 59 80
-10 10 35 52 56 52 14 0 46 -52 46 -74 0 -18 -45 -23 -55 -6 -3 6 -11 10 -17
10 -7 0 -2 -9 10 -20 12 -12 22 -33 22 -48 0 -15 7 -36 15 -46 19 -26 19 -56
0 -56 -8 0 -15 -4 -15 -9 0 -5 -11 -12 -25 -15 -14 -4 -25 -13 -25 -22 0 -17
-61 -84 -77 -84 -6 0 -8 -12 -5 -27 l5 -28 -39 36 c-32 30 -43 35 -61 28 -33
-12 -32 -92 0 -131 20 -25 26 -27 57 -18 22 6 38 6 46 -1 9 -7 24 -7 50 0 42
12 56 7 47 -15 -3 -9 0 -14 8 -12 27 6 8 -43 -33 -83 -28 -27 -49 -39 -69 -39
-16 0 -29 5 -29 10 0 6 -7 10 -15 10 -8 0 -15 -7 -15 -15 0 -21 -12 -19 -33 5
-21 25 -33 25 -40 0 -3 -11 -19 -28 -35 -37 -29 -16 -29 -18 -14 -41 14 -22
14 -25 0 -33 -9 -5 -36 -39 -61 -76 -24 -38 -59 -83 -76 -100 -38 -40 -40 -50
-3 -25 15 11 47 31 72 46 25 15 70 45 100 67 49 36 56 38 67 23 7 -9 19 -14
28 -11 14 6 19 28 16 73 -2 24 25 47 105 87 27 14 57 33 65 43 24 29 107 63
136 55 31 -8 65 -65 61 -101 -2 -19 -9 -25 -28 -26 -68 -4 -148 -29 -196 -60
-28 -19 -56 -34 -61 -34 -6 0 -18 -12 -28 -26 -13 -20 -19 -23 -31 -13 -11 9
-14 9 -14 0 0 -7 -4 -9 -10 -6 -5 3 -11 -4 -11 -17 -1 -13 -2 -32 -3 -43 -2
-32 14 -48 32 -33 14 11 15 10 7 -7 -4 -11 -8 -28 -9 -37 0 -10 -6 -18 -13
-18 -7 0 -10 -7 -6 -17 4 -9 2 -14 -3 -10 -5 3 -10 -3 -10 -14 0 -13 5 -18 15
-14 11 5 12 3 1 -10 -9 -11 -16 -13 -24 -5 -16 16 -26 12 -26 -14 0 -15 -7
-26 -19 -29 -14 -3 -17 -11 -14 -29 3 -17 -10 -50 -46 -109 -42 -70 -47 -86
-35 -95 8 -6 14 -23 14 -37 0 -30 -19 -77 -32 -77 -13 0 -9 -37 6 -49 12 -10
20 -9 38 2 77 49 206 107 238 107 38 0 36 1 225 -127 133 -91 151 -110 225
-245 24 -44 26 -91 5 -108 -11 -9 -15 -9 -15 -1 0 7 -5 9 -11 6 -6 -4 -16 0
-22 8 -7 9 -39 25 -72 36 -51 17 -62 18 -75 6 -18 -16 -66 -36 -97 -39 -14 -2
-32 10 -54 35 -19 22 -40 39 -48 39 -8 0 -29 -16 -48 -35 -19 -19 -40 -35 -48
-35 -8 0 -15 -6 -15 -14 0 -16 -27 -29 -42 -20 -6 4 -8 -1 -3 -15 4 -14 1 -23
-9 -27 -9 -3 -16 -11 -16 -18 0 -6 -9 -19 -20 -29 -12 -10 -18 -22 -15 -27 10
-16 73 -12 100 6 46 30 26 9 -35 -36 -33 -25 -62 -53 -66 -63 -3 -9 -37 -66
-76 -125 -39 -59 -105 -163 -146 -232 -89 -150 -127 -202 -222 -300 -49 -51
-60 -60 -35 -27 21 26 42 47 47 47 5 0 7 4 4 9 -3 4 3 16 14 26 11 10 17 22
14 26 -3 5 0 9 5 9 6 0 11 5 11 11 0 7 9 20 21 30 11 10 18 22 15 28 -4 5 0
13 7 18 8 4 22 20 32 36 14 22 15 30 4 43 -10 12 -10 15 2 12 10 -2 13 5 11
26 -3 25 0 28 17 23 12 -3 19 -1 15 4 -3 5 -1 9 3 9 14 0 10 36 -6 51 -13 11
-14 11 -8 -4 3 -9 2 -17 -3 -17 -6 0 -11 12 -11 28 -1 18 -3 21 -6 9 -5 -21
-43 -62 -43 -47 0 6 -12 10 -27 10 -19 0 -24 -3 -15 -9 21 -13 -11 -33 -42
-25 -16 4 -26 2 -26 -4 0 -7 -11 -8 -32 -1 -52 14 -67 9 -20 -8 47 -16 57 -44
22 -63 -11 -6 -20 -16 -20 -24 0 -14 -60 -69 -81 -74 -8 -2 -15 -8 -17 -13 -2
-5 -12 -9 -23 -9 -11 0 -16 -5 -13 -14 4 -10 -6 -13 -41 -11 -33 1 -49 -3 -52
-12 -3 -8 -14 -13 -24 -10 -10 3 -23 -1 -30 -9 -6 -8 -20 -14 -30 -14 -11 0
-16 -5 -13 -14 3 -7 -2 -16 -10 -19 -9 -4 -16 -13 -16 -22 0 -8 -5 -15 -11
-15 -5 0 -7 6 -3 13 6 8 3 8 -9 -1 -9 -8 -19 -23 -23 -34 -3 -11 -9 -16 -13
-11 -3 6 -26 1 -56 -13 -27 -13 -44 -24 -37 -24 6 0 12 -7 12 -15 0 -8 -5 -15
-11 -15 -8 0 -8 -5 1 -15 10 -12 10 -15 -4 -15 -15 0 -18 -5 -20 -39 -1 -8
-17 -19 -36 -24 -18 -5 -39 -16 -45 -24 -10 -14 -17 -13 -58 5 -65 29 -179
144 -206 209 -15 37 -18 30 93 203 99 154 221 389 208 402 -5 5 -22 10 -38 12
-16 1 -28 8 -27 14 2 7 -6 12 -16 12 -20 0 -35 13 -25 23 7 6 67 -15 76 -28 4
-5 8 -6 8 -1 0 5 9 1 19 -8 18 -17 20 -16 26 4 4 12 1 27 -5 35 -10 12 -7 17
16 27 26 11 13 13 -104 16 -83 2 -131 6 -127 12 3 6 42 10 86 10 73 0 80 2 88
23 5 12 9 119 10 238 1 119 4 259 6 310 3 85 9 258 20 624 2 72 6 443 9 825 3
382 9 1012 12 1400 3 388 2 718 -1 733 -8 32 -11 31 -150 -15 -105 -35 -417
-157 -426 -167 -4 -3 -10 -242 -14 -531 -4 -289 -8 -536 -10 -550 -1 -14 -5
-284 -9 -600 -25 -2204 -29 -2438 -46 -2469 -5 -10 -28 -26 -52 -36 -49 -21
-199 -170 -252 -250 -19 -27 -44 -59 -56 -70 -13 -11 -43 -49 -67 -85 -49 -74
-86 -125 -159 -225 -29 -38 -59 -83 -67 -100 -8 -16 -40 -59 -71 -94 -72 -83
-126 -189 -166 -329 -23 -80 -39 -118 -56 -131 -33 -26 -292 -45 -739 -55 -88
-2 -291 -10 -452 -17 -317 -14 -335 -12 -353 37 -7 17 -7 39 0 64 7 26 7 47 0
65 -7 18 -7 77 0 183 5 86 7 177 4 202 -3 29 2 75 15 130 12 47 21 101 21 120
0 20 9 54 20 75 24 47 27 112 10 207 -11 63 -11 69 10 103 12 19 30 59 41 88
19 51 19 52 -2 107 -12 30 -26 64 -32 75 -6 11 -16 31 -24 45 -7 14 -14 60
-15 102 -3 72 -1 79 25 106 l28 29 -26 49 c-25 45 -26 54 -19 119 5 39 9 104
10 145 1 41 8 129 14 195 15 138 15 158 5 317 -5 80 -4 143 4 194 13 78 21
504 10 504 -5 0 -137 -267 -188 -383 -359 -806 -495 -1759 -380 -2672 20 -162
88 -520 111 -591 12 -36 16 -39 48 -38 75 2 215 26 242 42 24 14 34 14 72 4
46 -12 148 -6 316 18 41 6 158 15 259 20 101 6 211 14 245 20 81 12 376 40
449 41 32 1 63 -3 69 -9 8 -8 3 -32 -16 -84 -30 -81 -38 -116 -66 -297 -15
-102 -23 -128 -43 -150 -41 -43 -85 -120 -118 -206 -24 -62 -44 -94 -88 -140
-74 -78 -92 -104 -131 -195 -38 -86 -90 -325 -90 -412 0 -31 -9 -124 -21 -205
-15 -107 -20 -180 -17 -263 4 -111 6 -119 51 -221 82 -189 114 -234 271 -387
229 -223 459 -407 733 -586 227 -148 216 -143 388 -156 211 -15 1259 -86 1630
-110 378 -25 594 -40 1240 -85 275 -19 664 -46 865 -60 201 -14 420 -30 488
-35 121 -10 125 -9 190 16 203 80 550 263 775 410 102 67 131 91 143 119 12
30 19 35 48 35 39 0 121 57 316 218 151 125 521 495 646 647 173 209 361 473
467 656 l27 45 -35 73 c-26 55 -35 86 -35 126 0 120 -37 247 -126 430 -44 89
-60 111 -149 198 -101 99 -101 119 0 43 26 -20 51 -36 57 -36 15 0 1 49 -26
90 -27 42 -40 73 -26 65 16 -10 13 0 -39 123 -27 64 -77 187 -111 272 -34 85
-69 165 -76 177 -8 12 -14 29 -14 36 0 36 22 38 332 35 669 -6 848 -4 857 10
4 7 13 52 20 100 7 48 14 97 16 108 5 20 1 22 -73 23 -42 1 -105 -4 -139 -11
-50 -9 -111 -9 -295 3 -141 8 -349 12 -526 11 -200 -3 -302 0 -321 7 -32 14
-36 20 -116 176 -55 108 -198 347 -230 385 -7 8 -20 40 -30 70 -20 63 -108
232 -131 251 -12 10 -20 7 -45 -17 -17 -16 -39 -45 -49 -65 -11 -20 -28 -39
-40 -42 -34 -9 -23 29 30 103 48 66 50 76 26 98 -35 33 -89 62 -116 62 -14 0
-34 7 -44 15 -27 20 -48 19 -74 -5 -12 -11 -24 -20 -26 -20 -3 0 -19 -13 -34
-30 -16 -16 -32 -30 -34 -30 -11 0 -15 76 -5 94 15 29 -26 59 -67 50 -17 -4
-34 -11 -37 -17 -9 -12 -71 -1 -124 23 -22 10 -54 21 -71 24 -17 4 -40 15 -50
24 -22 19 -52 22 -62 5 -4 -6 -32 -13 -62 -15 -30 -3 -79 -14 -107 -26 -29
-11 -72 -23 -95 -27 -24 -3 -57 -11 -75 -16 -25 -8 -37 -6 -64 10 l-32 20 26
6 c15 4 24 11 21 16 -8 13 -42 11 -48 -3 -3 -9 -13 -3 -28 16 -13 16 -56 63
-96 104 -40 41 -89 100 -109 131 -20 31 -66 88 -103 126 l-67 70 -2 210 c-1
116 -3 228 -6 250 -2 22 -6 121 -10 220 -3 99 -11 203 -16 232 l-10 52 -34
-38 c-18 -20 -59 -57 -89 -81 -36 -29 -60 -57 -68 -80 -8 -25 -11 -120 -9
-327 3 -286 2 -293 -17 -293 -19 0 -20 -6 -19 -107 l2 -107 -44 -13 c-24 -7
-41 -10 -38 -6 7 6 -21 63 -36 74 -5 3 -10 21 -11 40 -4 48 -5 49 -18 46 -8
-1 -11 9 -9 30 1 21 -4 39 -14 49 -13 14 -14 19 -3 25 10 7 10 9 1 9 -7 0 -13
9 -13 20 0 26 -21 70 -33 70 -6 0 -7 3 -4 6 4 4 13 2 20 -4 14 -12 15 -10 20
42 1 13 5 22 8 20 13 -8 16 71 4 86 -14 17 -4 66 13 63 12 -3 6 23 -10 44 -11
14 -1 36 12 28 14 -8 18 8 9 32 -5 15 -14 20 -28 16 -12 -3 -21 -1 -21 5 0 5
-9 12 -20 15 -21 5 -29 51 -10 62 6 3 10 14 10 24 0 9 12 27 26 40 14 12 30
35 35 51 l10 28 36 -24 c45 -30 86 -30 143 -1 38 19 46 28 52 62 13 66 15 68
41 50 22 -14 26 -14 51 6 37 29 150 182 182 246 16 32 30 83 36 132 8 71 7 84
-10 118 -24 46 -44 65 -103 97 -26 14 -42 29 -40 37 11 38 7 65 -13 81 l-21
18 23 0 c23 0 31 25 10 33 -7 2 -26 3 -42 1 -29 -3 -29 -3 -7 12 12 9 28 13
36 10 9 -3 15 1 15 10 0 11 -6 13 -19 9 -11 -3 -22 -1 -26 5 -3 6 -10 8 -14 6
-4 -3 -13 -1 -20 4 -10 6 -6 12 18 24 31 16 35 41 6 29 -10 -3 -15 1 -15 11 0
9 -7 19 -15 22 -11 5 -12 11 -4 25 5 11 7 36 3 56 -5 24 -3 34 4 29 6 -3 14
-1 18 5 4 8 3 9 -4 5 -7 -4 -12 -1 -12 9 0 8 7 18 15 21 8 4 15 10 15 15 0 6
-7 6 -17 1 -21 -11 -46 -5 -37 9 3 5 -2 9 -10 9 -9 0 -16 -6 -16 -13 0 -7 -9
-18 -20 -25 -17 -10 -23 -10 -36 3 -19 19 -28 19 -44 0 -19 -23 -38 -18 -36
10 1 16 8 26 24 30 14 3 20 10 16 17 -4 6 -3 8 2 5 6 -3 16 -2 24 3 12 7 12
12 3 21 -9 9 -16 9 -28 -1 -8 -7 -18 -10 -22 -7 -3 4 1 9 10 13 9 3 13 12 10
21 -5 13 1 15 35 11 30 -2 42 0 42 9 0 7 -6 13 -14 13 -8 0 -16 6 -19 13 -3 8
-11 6 -28 -8 -21 -18 -22 -18 -9 -1 14 18 13 18 -10 12 -24 -7 -24 -7 5 17 17
14 26 29 22 33 -4 5 -12 2 -16 -5 -5 -7 -15 -11 -22 -9 -8 3 -22 -1 -31 -9
-15 -13 -16 -13 -11 5 5 21 22 32 58 39 11 2 37 12 58 22 38 19 38 19 21 0
-16 -18 -16 -20 5 -38 28 -25 28 -33 -1 -44 l-23 -9 24 -9 c16 -6 28 -6 35 1
19 19 33 11 28 -15 -2 -14 -8 -25 -13 -25 -5 0 -9 -9 -9 -20 0 -11 4 -20 10
-20 5 0 7 6 4 14 -9 23 14 28 29 6 12 -17 19 -19 41 -11 17 7 26 7 26 1 0 -6
-5 -10 -11 -10 -5 0 -7 -4 -4 -10 3 -5 -1 -10 -9 -10 -9 0 -16 -4 -16 -9 0
-18 12 -41 22 -41 6 0 5 6 -2 15 -9 11 -9 15 -1 15 29 0 47 -20 51 -57 11 -86
3 -299 -12 -355 -17 -62 -15 -70 18 -58 21 8 30 39 38 131 2 20 6 41 10 47 13
21 17 329 5 379 -7 26 -13 73 -15 103 -6 110 -11 138 -30 163 -10 15 -22 27
-26 27 -5 0 -8 8 -8 18 0 9 -6 28 -13 42 -8 14 -20 47 -27 73 -13 42 -30 64
-30 37 0 -5 -4 -10 -9 -10 -5 0 -8 11 -8 25 0 16 -12 36 -32 54 -17 15 -31 31
-31 36 0 4 9 0 19 -9 11 -10 25 -15 32 -11 7 5 20 -2 31 -16 l20 -24 -7 60
c-13 129 -24 423 -26 705 -1 162 -4 380 -8 485 l-6 189 -75 22 c-41 13 -83 23
-94 23 -18 1 -19 -14 -12 -556z m-3084 -62 c22 -41 -1 -140 -28 -122 -18 11
-26 80 -13 114 12 32 26 35 41 8z m2452 -127 c15 -4 35 -15 44 -25 16 -18 14
-17 -52 1 -38 11 -70 20 -72 20 -2 0 0 5 4 11 3 6 16 8 28 5 11 -4 33 -9 48
-12z m-447 -44 c-3 -5 -12 -10 -18 -10 -7 0 -6 4 3 10 19 12 23 12 15 0z m42
-86 c-3 -3 -12 -4 -19 -1 -8 3 -5 6 6 6 11 1 17 -2 13 -5z m63 -9 c-43 -17
-50 -17 -50 -6 0 5 12 12 28 14 51 8 57 6 22 -8z m-290 1 c0 -2 -8 -10 -17
-17 -16 -13 -17 -12 -4 4 13 16 21 21 21 13z m1008 -195 c3 -8 -1 -12 -9 -9
-7 2 -15 10 -17 17 -3 8 1 12 9 9 7 -2 15 -10 17 -17z m32 -45 c0 -3 -4 -8
-10 -11 -5 -3 -10 -1 -10 4 0 6 5 11 10 11 6 0 10 -2 10 -4z m126 -56 c42 -18
65 -40 43 -40 -11 0 -59 14 -99 28 -8 3 -22 6 -30 6 -8 1 -16 9 -18 20 -3 16
1 17 30 11 18 -4 52 -15 74 -25z m214 -103 c0 -21 -12 -28 -27 -16 -19 16 -16
29 7 29 11 0 20 -6 20 -13z m31 -66 c3 -28 4 -61 1 -61 -10 0 -61 63 -57 70 5
8 55 1 56 -9z m39 -266 c0 -5 -5 -3 -10 5 -5 8 -10 20 -10 25 0 6 5 3 10 -5 5
-8 10 -19 10 -25z m-20 -145 c0 -5 -2 -10 -4 -10 -3 0 -8 5 -11 10 -3 6 -1 10
4 10 6 0 11 -4 11 -10z m-152 -102 c-4 -12 -48 -19 -48 -8 0 11 8 16 30 17 12
1 20 -3 18 -9z m-468 -13 c0 -8 -4 -15 -10 -15 -5 0 -10 7 -10 15 0 8 5 15 10
15 6 0 10 -7 10 -15z m294 -38 c-7 -18 -24 -23 -24 -8 0 22 13 42 22 33 5 -5
6 -16 2 -25z m-300 5 c5 -1 6 -5 3 -8 -3 -4 -1 -16 5 -27 11 -21 11 -21 29 2
l18 22 7 -25 c7 -29 6 -28 29 -20 14 6 14 8 -1 25 -10 11 -14 22 -11 26 4 3 7
1 7 -5 0 -6 7 -9 15 -6 10 4 15 0 15 -10 0 -9 7 -19 15 -22 8 -4 15 -16 15
-27 0 -20 0 -20 15 -1 14 18 14 17 11 -13 -2 -18 1 -30 5 -27 5 3 9 12 9 19 0
8 8 19 19 24 15 9 27 2 68 -37 27 -26 49 -54 48 -62 0 -8 8 -20 20 -27 20 -12
20 -12 -2 -13 -13 0 -23 -5 -23 -11 0 -6 9 -9 20 -6 16 4 18 2 10 -13 -5 -9
-6 -20 -3 -24 3 -3 1 -6 -5 -6 -6 0 -9 -6 -6 -14 3 -7 15 -13 26 -12 28 1 35
-21 9 -29 -26 -8 -26 -16 -1 -38 11 -9 20 -15 20 -12 0 2 59 -57 130 -132 72
-75 130 -143 130 -151 0 -8 -44 30 -97 85 -129 132 -213 207 -262 235 -23 13
-41 28 -41 34 0 6 -13 17 -30 24 -16 7 -27 16 -25 20 3 5 -5 12 -17 16 -13 3
-30 13 -38 21 -26 24 -127 91 -149 98 -25 8 -37 41 -21 60 10 12 10 15 0 15
-8 0 -11 9 -8 25 4 20 2 23 -7 15 -13 -10 -30 1 -20 12 5 4 43 4 69 0z m176
-44 c0 -4 -4 -8 -9 -8 -6 0 -12 4 -15 8 -3 5 1 9 9 9 8 0 15 -4 15 -9z m-1549
-118 c-17 -17 -31 -39 -31 -50 0 -12 -7 -23 -15 -26 -14 -6 -14 -8 1 -18 14
-11 15 -16 3 -37 -13 -24 -13 -24 -20 17 -12 66 1 106 41 126 51 26 57 22 21
-12z m1759 -9 c0 -6 -4 -13 -10 -16 -5 -3 -10 1 -10 9 0 9 5 16 10 16 6 0 10
-4 10 -9z m-1563 -73 c-3 -8 -6 -5 -6 6 -1 11 2 17 5 13 3 -3 4 -12 1 -19z
m1666 2 c-3 -11 -9 -20 -14 -20 -14 0 -11 28 4 33 6 3 13 6 14 6 0 1 -1 -8 -4
-19z m43 1 c-4 -5 -1 -11 6 -13 6 -2 8 -10 4 -17 -6 -9 -11 -9 -22 0 -9 8 -14
8 -14 1 0 -6 7 -15 16 -20 14 -8 10 -12 -20 -22 -21 -6 -40 -9 -44 -6 -3 4 12
24 33 46 38 39 52 50 41 31z m74 -20 c0 -20 -25 -35 -41 -25 -13 8 -11 32 4
37 25 11 37 7 37 -12z m15 -41 c-3 -5 -10 -10 -16 -10 -5 0 -9 5 -9 10 0 6 7
10 16 10 8 0 12 -4 9 -10z m-3261 -68 c-7 -23 -19 -29 -29 -12 -8 12 17 52 27
42 4 -4 5 -17 2 -30z m3053 -4 c-3 -8 -6 -5 -6 6 -1 11 2 17 5 13 3 -3 4 -12
1 -19z m-137 -128 c10 -5 20 -7 23 -4 3 3 17 -11 33 -31 19 -26 29 -32 35 -23
13 21 22 -17 10 -41 -14 -25 -14 -78 -1 -86 6 -3 7 1 4 9 -3 9 -1 16 5 16 6 0
11 7 11 15 0 8 5 15 10 15 7 0 7 -7 0 -21 -7 -11 -9 -27 -6 -35 4 -10 -2 -14
-19 -14 -18 0 -25 -5 -25 -19 0 -10 -12 -31 -26 -46 -14 -15 -23 -33 -20 -41
3 -7 0 -11 -7 -8 -8 3 -13 -4 -13 -16 0 -11 4 -20 8 -20 4 0 8 -4 8 -10 0 -5
-9 -10 -20 -10 -11 0 -20 -4 -20 -9 0 -5 -3 -16 -6 -25 -4 -10 2 -17 20 -22
31 -7 47 -33 40 -61 -4 -13 0 -22 12 -27 20 -8 21 -8 29 25 4 17 1 31 -9 42
-14 13 -14 18 -1 45 9 16 22 35 30 42 20 17 19 6 -1 -14 -14 -15 -14 -16 0
-16 13 0 16 -10 14 -51 -1 -27 -8 -55 -15 -60 -6 -6 -9 -17 -6 -25 3 -8 -1
-14 -9 -14 -10 0 -14 -15 -14 -54 0 -47 -4 -58 -27 -80 -17 -16 -27 -20 -27
-12 0 8 6 16 14 19 20 8 9 44 -15 50 -10 3 -22 1 -25 -4 -3 -5 -1 -9 4 -9 5 0
9 -20 8 -45 0 -36 -3 -44 -14 -40 -13 5 -13 3 -1 -12 10 -12 10 -15 1 -9 -9 6
-11 1 -8 -18 4 -21 1 -26 -14 -26 -13 0 -17 -5 -14 -15 4 -9 0 -15 -7 -15 -11
0 -11 -3 1 -10 13 -8 13 -10 -2 -10 -11 0 -15 -6 -11 -20 3 -13 -1 -22 -11
-26 -13 -5 -15 -14 -11 -34 3 -16 1 -31 -4 -35 -6 -3 -11 -1 -11 5 0 6 -4 9
-9 6 -5 -4 -11 -3 -14 1 -2 5 -2 2 -1 -5 2 -7 -5 -20 -16 -29 -11 -10 -20 -23
-20 -30 0 -7 -4 -13 -9 -13 -5 0 -8 30 -7 68 1 37 -2 75 -6 85 -5 10 -5 17 1
17 6 0 8 6 5 14 -3 8 -14 13 -25 11 -12 -2 -19 2 -19 11 0 8 7 14 16 14 12 0
15 7 11 26 -3 19 -1 24 10 20 11 -5 11 -1 2 17 -6 12 -9 19 -5 16 4 -4 18 3
31 15 l24 21 -25 23 c-19 18 -28 21 -38 13 -7 -6 -16 -8 -19 -5 -3 4 3 14 13
23 15 12 20 30 21 74 1 31 6 57 11 57 4 0 8 -6 8 -14 0 -9 7 -12 20 -9 11 3
20 8 20 12 0 3 3 16 6 29 5 16 2 22 -10 22 -9 0 -16 7 -16 16 0 8 -5 12 -11 8
-8 -4 -9 0 -4 15 4 14 2 21 -7 21 -9 1 -7 5 5 14 9 7 17 17 17 21 0 4 -6 2
-14 -4 -8 -7 -17 -8 -20 -3 -15 25 -38 132 -37 170 2 41 -12 53 -31 27 -5 -6
-8 -6 -8 2 0 6 7 19 15 27 12 11 14 25 9 51 -4 23 -2 35 5 35 6 0 11 -8 11
-17 0 -14 3 -13 16 5 8 12 19 20 22 18 12 -7 77 9 78 19 3 33 17 45 46 40 17
-3 39 -10 48 -15z m-250 -70 c0 -5 -4 -10 -10 -10 -5 0 -10 5 -10 10 0 6 5 10
10 10 6 0 10 -4 10 -10z m390 -14 c0 -8 -4 -18 -10 -21 -5 -3 -10 3 -10 14 0
12 5 21 10 21 6 0 10 -6 10 -14z m-1290 -73 c0 -28 -1 -28 -50 -3 -25 13 -40
27 -40 39 0 29 11 31 51 8 27 -15 39 -29 39 -44z m1370 -297 c0 -8 -4 -18 -10
-21 -5 -3 -10 3 -10 14 0 12 5 21 10 21 6 0 10 -6 10 -14z m-1718 -38 c-9 -9
-12 -9 -12 1 0 7 -4 9 -10 6 -12 -7 -12 -3 -4 20 6 15 8 15 22 1 13 -12 14
-18 4 -28z m-1442 -178 c0 -5 -5 -10 -11 -10 -5 0 -7 5 -4 10 3 6 8 10 11 10
2 0 4 -4 4 -10z m3187 -16 c-3 -3 -12 -4 -19 -1 -8 3 -5 6 6 6 11 1 17 -2 13
-5z m-3182 -35 c-4 -5 -2 -9 4 -9 8 0 13 -90 12 -205 -4 -450 -7 -555 -15
-555 -6 0 -5 -5 1 -11 7 -7 8 -21 3 -38 -4 -15 -4 -34 1 -43 11 -20 13 -268 3
-278 -20 -18 -52 -21 -58 -4 -7 19 -10 250 -3 262 3 4 8 159 11 345 10 488 15
565 37 551 5 -3 7 -10 4 -15z m3174 -75 c10 -37 9 -49 0 -55 -19 -12 -28 -2
-34 39 -3 20 -8 47 -11 60 -4 20 -2 22 14 13 11 -6 24 -30 31 -57z m-1717 -96
c-9 -9 -12 -7 -12 12 0 19 3 21 12 12 9 -9 9 -15 0 -24z m1283 -48 c3 -5 1
-10 -4 -10 -6 0 -11 5 -11 10 0 6 2 10 4 10 3 0 8 -4 11 -10z m-22 -99 c-3
-10 1 -22 8 -27 8 -5 11 -3 7 8 -4 8 2 20 14 27 17 11 18 10 9 -7 -6 -11 -8
-22 -5 -25 8 -8 -34 -19 -46 -12 -5 3 -10 1 -10 -4 0 -6 -7 -11 -15 -11 -12 0
-10 5 5 20 12 12 18 25 15 30 -3 4 1 11 7 13 7 3 14 6 15 6 0 1 -1 -7 -4 -18z
m28 -66 c6 15 8 11 8 -17 1 -20 6 -40 11 -43 6 -3 10 -11 10 -16 0 -6 -4 -8
-8 -5 -4 2 -6 -11 -4 -30 2 -18 8 -31 13 -28 5 3 12 -2 15 -11 7 -18 -23 -56
-40 -49 -6 2 -29 -5 -51 -16 l-40 -21 -5 28 c-3 16 -1 33 6 38 21 19 25 45 6
52 -32 12 -31 27 5 60 28 27 33 36 24 47 -10 11 -8 15 6 18 10 2 22 -3 27 -11
8 -13 10 -12 17 4z m79 -159 c0 -3 -4 -8 -10 -11 -5 -3 -10 -1 -10 4 0 6 5 11
10 11 6 0 10 -2 10 -4z m47 -53 c-3 -3 -11 -2 -17 2 -8 5 -7 11 2 22 12 15 13
14 16 -1 2 -10 1 -20 -1 -23z m53 7 c0 -5 -2 -10 -4 -10 -3 0 -8 5 -11 10 -3
6 -1 10 4 10 6 0 11 -4 11 -10z m-1210 -429 c0 -6 -5 -13 -10 -16 -6 -4 -8
-10 -5 -15 3 -4 -3 -6 -14 -3 -10 3 -22 0 -25 -6 -4 -6 -1 -9 7 -5 10 4 14 -3
13 -25 -1 -27 -4 -29 -28 -24 -29 6 -36 -5 -16 -25 6 -6 9 -15 5 -19 -14 -13
-26 12 -32 63 -4 40 -2 56 10 68 18 17 95 23 95 7z m1105 -41 c3 -6 -1 -13 -9
-16 -32 -12 -16 -27 22 -21 24 4 32 3 22 -3 -12 -7 -10 -12 10 -30 20 -18 22
-23 10 -30 -8 -6 -21 -10 -28 -10 -10 0 -10 -4 2 -16 19 -19 20 -25 4 -21 -7
1 -12 -3 -11 -10 1 -6 -4 -14 -12 -17 -8 -3 -14 0 -12 7 1 7 -6 11 -15 11 -10
-1 -15 3 -12 8 3 5 -1 8 -9 6 -9 -2 -16 1 -16 5 0 5 -9 17 -20 26 -12 10 -21
26 -21 35 0 9 -4 16 -10 16 -5 0 -10 5 -10 11 0 8 4 8 13 1 7 -5 21 -6 32 -1
11 4 14 8 8 8 -7 1 -13 6 -13 12 0 6 7 9 15 5 9 -3 20 3 27 14 14 22 24 25 33
10z m-35 -4 c0 -3 -4 -8 -10 -11 -5 -3 -10 -1 -10 4 0 6 5 11 10 11 6 0 10 -2
10 -4z m-93 -78 c-3 -8 -6 -5 -6 6 -1 11 2 17 5 13 3 -3 4 -12 1 -19z m-2479
-55 c-4 -22 -22 -20 -26 1 -2 10 3 16 13 16 10 0 15 -7 13 -17z m1442 7 c0 -5
-4 -10 -10 -10 -5 0 -10 5 -10 10 0 6 5 10 10 10 6 0 10 -4 10 -10z m10 -41
c0 -5 -7 -9 -15 -9 -8 0 -15 7 -15 15 0 9 6 12 15 9 8 -4 15 -10 15 -15z
m-1440 -29 c0 -5 -7 -10 -16 -10 -8 0 -12 5 -9 10 3 6 10 10 16 10 5 0 9 -4 9
-10z m745 -349 c3 -5 1 -12 -5 -16 -5 -3 -10 1 -10 9 0 18 6 21 15 7z m395
-117 c0 -2 -7 -4 -15 -4 -8 0 -15 4 -15 10 0 5 7 7 15 4 8 -4 15 -8 15 -10z
m3550 -84 c0 -5 -4 -10 -10 -10 -5 0 -10 5 -10 10 0 6 5 10 10 10 6 0 10 -4
10 -10z m-4041 -136 c-14 -18 -24 -11 -15 11 3 9 11 13 16 10 8 -5 7 -11 -1
-21z m-205 -176 c-4 -7 -16 -23 -26 -34 -11 -12 -30 -41 -42 -65 -13 -24 -29
-45 -35 -47 -16 -5 -14 13 4 28 8 7 15 23 15 36 0 14 6 24 14 24 8 0 23 16 35
35 11 19 25 35 31 35 6 0 8 -6 4 -12z m-1214 -2836 c0 -11 -207 -374 -268
-469 -25 -40 -52 -75 -61 -77 -55 -17 -301 -66 -326 -66 -29 1 -29 1 -10 16
11 8 47 33 80 55 95 63 288 242 433 402 122 135 152 162 152 139z m3388 -882
c6 0 12 -7 12 -16 0 -14 -3 -14 -15 -4 -12 10 -15 9 -15 -5 0 -12 -5 -15 -16
-11 -9 3 -19 6 -24 6 -4 0 -6 9 -3 21 4 15 11 19 27 15 11 -3 27 -6 34 -6z"/>
<path d="M6020 8093 c0 -22 -2 -25 -10 -13 -8 12 -10 11 -10 -6 0 -30 11 -37
26 -16 16 20 18 62 4 62 -5 0 -10 -12 -10 -27z"/>
<path d="M5901 8102 c-1 -7 -7 -10 -13 -7 -7 4 -2 -3 12 -14 14 -11 30 -21 35
-20 6 0 3 5 -6 12 -9 7 -18 19 -22 27 -4 10 -6 11 -6 2z"/>
<path d="M6130 8052 c0 -7 -7 -12 -15 -12 -8 0 -15 -5 -15 -11 0 -6 -7 -9 -15
-5 -8 3 -20 -1 -27 -8 -11 -11 -15 -11 -25 3 -6 9 -15 13 -18 9 -9 -8 7 -24
54 -58 19 -13 31 -19 27 -12 -4 7 -2 12 3 12 6 0 11 12 11 26 0 15 8 33 17 40
10 7 15 16 10 20 -4 4 -7 2 -7 -4z m-43 -64 c-3 -8 -6 -5 -6 6 -1 11 2 17 5
13 3 -3 4 -12 1 -19z"/>
<path d="M6149 7999 c-1 -13 -1 -35 0 -49 1 -22 0 -23 -9 -7 -12 18 -30 23
-30 7 0 -5 13 -16 29 -24 l28 -15 -3 51 c-3 53 -13 78 -15 37z"/>
<path d="M6181 7904 c0 -11 3 -14 6 -6 3 7 2 16 -1 19 -3 4 -6 -2 -5 -13z"/>
<path d="M6040 7604 c0 -8 5 -14 10 -14 6 0 15 -10 19 -22 8 -21 9 -20 9 9 -1
22 -7 33 -19 36 -12 3 -19 0 -19 -9z"/>
<path d="M6040 7475 c0 -28 15 -34 24 -9 10 25 7 34 -9 34 -9 0 -15 -9 -15
-25z"/>
<path d="M5990 7440 c0 -5 5 -10 10 -10 6 0 10 5 10 10 0 6 -4 10 -10 10 -5 0
-10 -4 -10 -10z"/>
<path d="M6056 7405 c-3 -8 -1 -15 4 -15 13 0 22 18 11 24 -5 3 -11 -1 -15 -9z"/>
<path d="M6020 7360 c0 -5 5 -10 10 -10 6 0 10 5 10 10 0 6 -4 10 -10 10 -5 0
-10 -4 -10 -10z"/>
<path d="M6081 7263 c11 -34 19 -42 19 -20 0 7 -7 22 -15 33 -13 17 -14 16 -4
-13z"/>
<path d="M6150 7190 c0 -5 5 -10 10 -10 6 0 10 5 10 10 0 6 -4 10 -10 10 -5 0
-10 -4 -10 -10z"/>
<path d="M6190 7145 c0 -8 5 -15 10 -15 6 0 10 7 10 15 0 8 -4 15 -10 15 -5 0
-10 -7 -10 -15z"/>
<path d="M6032 7120 c14 -22 24 -19 15 5 -4 8 -11 15 -17 15 -6 0 -6 -7 2 -20z"/>
<path d="M6210 7120 c-11 -7 -11 -10 -2 -10 8 0 10 -5 6 -12 -4 -7 -3 -9 1 -5
7 6 17 37 12 37 -1 0 -9 -5 -17 -10z"/>
<path d="M6020 7080 c0 -5 5 -10 11 -10 5 0 7 5 4 10 -3 6 -8 10 -11 10 -2 0
-4 -4 -4 -10z"/>
<path d="M6103 6915 c9 -21 -14 -31 -28 -12 -9 12 -14 14 -23 5 -30 -30 1 -44
51 -23 19 8 24 45 6 45 -6 0 -9 -7 -6 -15z"/>
<path d="M6134 6919 c-9 -16 2 -22 21 -11 15 8 16 10 1 15 -8 3 -18 2 -22 -4z"/>
<path d="M6071 6842 c-1 -12 -7 -25 -15 -28 -14 -5 -10 -54 5 -54 18 0 30 40
20 72 -7 26 -9 28 -10 10z"/>
<path d="M5328 9253 c7 -3 16 -2 19 1 4 3 -2 6 -13 5 -11 0 -14 -3 -6 -6z"/>
<path d="M5390 8750 c20 -13 33 -13 25 0 -3 6 -14 10 -23 10 -15 0 -15 -2 -2
-10z"/>
<path d="M5510 8450 c0 -5 5 -10 10 -10 6 0 10 5 10 10 0 6 -4 10 -10 10 -5 0
-10 -4 -10 -10z"/>
<path d="M6482 8053 c2 -11 -3 -18 -12 -17 -9 1 -23 -9 -33 -22 -16 -22 -16
-23 -1 -17 12 4 15 3 10 -5 -4 -7 -1 -12 8 -12 9 0 16 9 16 20 0 11 6 23 14
26 15 6 18 44 3 44 -4 0 -7 -8 -5 -17z"/>
<path d="M6575 7821 c-3 -5 -1 -12 5 -16 5 -3 10 1 10 9 0 18 -6 21 -15 7z"/>
<path d="M4393 7597 c-13 -5 -23 -18 -23 -27 0 -25 35 -52 62 -48 31 4 35 38
6 65 -19 17 -27 19 -45 10z"/>
<path d="M4487 7449 c7 -7 15 -10 18 -7 3 3 -2 9 -12 12 -14 6 -15 5 -6 -5z"/>
<path d="M4599 7447 c6 -8 8 -17 4 -20 -3 -4 2 -7 11 -7 12 0 16 5 12 16 -3 9
-6 18 -6 20 0 2 -7 4 -16 4 -13 0 -14 -3 -5 -13z"/>
<path d="M5027 7213 c-22 -15 -34 -29 -27 -31 12 -4 80 38 80 51 0 13 -15 8
-53 -20z"/>
<path d="M4353 6833 c-7 -2 -13 -11 -13 -19 0 -8 -4 -14 -9 -14 -5 0 -14 -13
-21 -30 -7 -16 -16 -27 -21 -24 -5 3 -12 -3 -16 -13 -4 -9 -17 -27 -30 -39
-13 -12 -28 -36 -34 -53 -6 -17 -15 -31 -20 -31 -5 0 -9 -11 -9 -25 0 -15 -7
-40 -17 -58 -15 -30 -15 -31 1 -18 33 27 188 259 207 309 8 22 5 25 -18 15z"/>
<path d="M4563 6814 c-19 -15 -31 -19 -27 -11 3 8 1 18 -4 21 -5 3 -12 -4 -15
-15 -3 -12 -10 -19 -15 -15 -5 3 -9 -1 -9 -8 0 -15 -49 -88 -92 -135 -20 -22
-28 -38 -22 -44 6 -6 6 -17 2 -26 -5 -9 -11 -30 -14 -48 -9 -47 17 -51 56 -8
41 46 59 33 51 -37 -2 -28 -8 -56 -11 -61 -4 -6 -7 -25 -7 -42 -1 -27 -4 -30
-34 -29 -27 0 -31 -3 -26 -18 3 -11 -1 -20 -10 -24 -9 -3 -13 -10 -10 -15 3
-5 -2 -9 -10 -9 -9 0 -16 -5 -16 -11 0 -6 7 -8 16 -5 8 3 12 2 9 -4 -3 -6 -12
-10 -20 -10 -8 0 -17 -4 -20 -10 -11 -17 33 -11 51 7 20 20 61 43 78 43 6 0
12 22 14 54 1 30 9 70 17 90 9 20 12 36 8 36 -4 0 3 9 16 21 21 20 21 22 5 40
-11 12 -24 17 -36 13 -22 -7 -24 9 -3 26 10 9 15 9 15 1 0 -29 56 5 81 49 7
14 12 31 10 39 -1 9 3 12 12 8 17 -6 37 37 37 79 0 13 4 25 10 29 15 9 -1 37
-17 30 -11 -3 -13 -1 -9 10 9 24 -25 18 -61 -11z"/>
<path d="M4268 6773 c7 -3 16 -2 19 1 4 3 -2 6 -13 5 -11 0 -14 -3 -6 -6z"/>
<path d="M4360 6474 c0 -9 -5 -12 -12 -8 -6 4 -8 3 -4 -4 11 -18 44 -10 38 10
-5 22 -22 24 -22 2z"/>
<path d="M4070 6430 c-9 -6 -10 -10 -3 -10 6 0 15 5 18 10 8 12 4 12 -15 0z"/>
<path d="M4845 6360 c-4 -11 -10 -18 -15 -15 -11 7 -31 -20 -28 -36 2 -8 -7
-15 -19 -17 -16 -2 -20 -8 -16 -20 6 -14 4 -15 -9 -4 -11 9 -18 10 -23 2 -3
-5 -19 -10 -34 -10 -39 0 -56 -22 -41 -50 15 -28 10 -32 -28 -21 -28 8 -32 7
-32 -9 0 -10 -4 -22 -10 -25 -5 -3 -10 -1 -10 5 0 6 -4 8 -10 5 -5 -3 -10 -13
-10 -21 0 -19 -33 -51 -48 -46 -25 8 -11 -25 16 -35 l27 -11 -25 -2 c-14 -1
-28 -2 -32 -1 -5 0 -8 -6 -8 -14 0 -8 -9 -15 -19 -15 -24 0 -36 -16 -18 -23
22 -8 80 17 241 107 l156 88 63 -8 c34 -5 89 -7 123 -5 39 2 74 -3 98 -13 21
-9 48 -16 59 -16 28 0 -45 49 -98 66 -68 21 -119 45 -138 65 -10 10 -15 19
-11 19 4 0 -3 9 -16 20 -12 11 -27 17 -31 14 -8 -5 -14 17 -10 39 3 17 -38 5
-44 -13z"/>
<path d="M6305 5950 c-3 -5 1 -10 9 -10 9 0 16 5 16 10 0 6 -4 10 -9 10 -6 0
-13 -4 -16 -10z"/>
<path d="M4513 5744 c0 -8 7 -14 15 -14 9 0 13 -3 9 -6 -9 -9 -48 6 -42 17 4
5 -4 8 -16 6 -13 -2 -25 -9 -27 -15 -2 -7 -8 -10 -12 -7 -5 3 -18 0 -29 -7
-15 -9 -17 -15 -9 -25 7 -9 7 -13 -1 -13 -13 0 -14 -10 -1 -30 8 -13 11 -12
23 4 9 12 20 17 31 13 9 -4 16 -1 16 6 0 8 3 9 8 1 12 -18 80 -25 86 -9 6 17
-18 27 -33 12 -8 -8 -11 -8 -11 0 0 6 -8 14 -17 16 -13 3 -10 5 7 6 31 2 61
24 52 37 -11 17 -49 23 -49 8z"/>
<path d="M4494 5629 c-3 -6 -17 -9 -29 -7 -15 3 -22 1 -19 -7 3 -7 -2 -20 -11
-29 -9 -9 -13 -21 -10 -26 4 -6 1 -17 -5 -25 -10 -12 -10 -15 1 -15 18 1 78
50 61 50 -8 0 -5 8 8 22 11 12 20 28 20 35 0 16 -6 17 -16 2z"/>
<path d="M7285 5625 c-39 -8 -97 -12 -130 -9 -33 3 -78 1 -100 -4 l-40 -10 47
-1 c26 -1 73 -9 105 -18 77 -23 177 -22 223 2 19 10 62 24 95 31 l60 12 -45 1
c-25 1 -67 3 -95 5 -27 3 -81 -2 -120 -9z"/>
<path d="M4278 5583 c6 -2 18 -2 25 0 6 3 1 5 -13 5 -14 0 -19 -2 -12 -5z"/>
<path d="M4269 5533 c-13 -16 -12 -17 4 -4 9 7 17 15 17 17 0 8 -8 3 -21 -13z"/>
<path d="M4190 5470 c0 -5 4 -10 9 -10 5 0 18 -3 28 -7 16 -6 16 -5 4 10 -15
19 -41 23 -41 7z"/>
</g>
</svg>
